<svg xmlns="http://www.w3.org/2000/svg" width="359" height="64" fill="none" viewBox="0 0 359 64">
  <ellipse cx="30.118" cy="32" fill="#fff" rx="30.118" ry="32"/>
  <path fill="#fff" d="M140.958 0a3.765 3.765 0 0 1 3.765 3.765v56.47A3.765 3.765 0 0 1 140.958 64H95.781a3.76 3.76 0 0 1-2.975-1.459 2 2 0 0 1-.161-.142L64.599 34.86a2 2 0 0 1-.068-2.785L92.582 1.75l.055-.057A3.76 3.76 0 0 1 95.78 0zM170.308 18V4.91h1.585v6.493h.154l5.88-6.494h2.071l-5.497 5.906L179.998 18h-1.917l-4.551-6.085-1.637 1.84V18zm22.083-6.546q0 2.071-.748 3.58-.749 1.508-2.052 2.327-1.303.818-2.979.818-1.674 0-2.979-.818-1.304-.819-2.051-2.327t-.748-3.58q0-2.07.748-3.579.747-1.508 2.051-2.327 1.305-.818 2.979-.818t2.979.818q1.303.819 2.052 2.327.748 1.509.748 3.58m-1.535 0q0-1.7-.568-2.87-.563-1.17-1.528-1.77a3.96 3.96 0 0 0-2.148-.6q-1.189 0-2.154.6-.958.6-1.528 1.77-.562 1.17-.562 2.87t.562 2.87q.57 1.17 1.528 1.771.965.6 2.154.601 1.19 0 2.148-.6.965-.602 1.528-1.771.568-1.17.568-2.87m14.491-6.545V18h-1.534l-7.134-10.278h-.128V18h-1.585V4.91h1.534l7.159 10.303h.128V4.91zM208.429 18V4.91h1.585v6.493h.153l5.881-6.494h2.071l-5.497 5.906L218.119 18h-1.918l-4.551-6.085-1.636 1.84V18zm20.243-13.09h1.585v8.667q0 1.342-.633 2.397-.626 1.048-1.77 1.655-1.144.6-2.685.601-1.54 0-2.685-.6a4.5 4.5 0 0 1-1.777-1.656q-.626-1.054-.626-2.397V4.909h1.585v8.54q0 .96.422 1.707.422.741 1.202 1.17.786.42 1.879.421 1.093 0 1.879-.422a2.97 2.97 0 0 0 1.202-1.17q.422-.747.422-1.706zM233.333 18V4.91h4.423q1.534 0 2.518.523.986.517 1.458 1.426.473.907.473 2.064t-.473 2.052q-.473.896-1.451 1.406-.978.505-2.499.505h-3.58v-1.431h3.528q1.049 0 1.688-.307.645-.308.933-.87.294-.568.294-1.355 0-.786-.294-1.374t-.939-.908q-.647-.326-1.707-.326h-2.787V18zm6.162-5.88 3.221 5.88h-1.841l-3.17-5.88zm5.261 5.88V4.91h4.424q1.534 0 2.518.523.984.517 1.458 1.426.473.907.473 2.064t-.473 2.052q-.474.896-1.451 1.406-.978.505-2.5.505h-3.579v-1.431h3.528q1.048 0 1.688-.307.645-.308.933-.87.294-.568.294-1.355 0-.786-.294-1.374t-.94-.908q-.645-.326-1.706-.326h-2.787V18zm6.162-5.88L254.14 18h-1.841l-3.17-5.88zm5.799 5.88h-1.662l4.807-13.09h1.636L266.305 18h-1.662l-3.912-11.02h-.102zm.614-5.114h6.699v1.407h-6.699zm21.304-7.977V18h-1.534l-7.134-10.278h-.128V18h-1.585V4.91h1.534l7.159 10.303h.128V4.91zm10.241 3.273a2 2 0 0 0-.933-1.509q-.819-.537-2.007-.537-.87 0-1.522.282-.645.28-1.01.773a1.86 1.86 0 0 0-.358 1.119q0 .525.25.9.255.372.652.621.396.243.831.403.434.153.799.249l1.329.358q.511.135 1.138.37.633.237 1.208.646.581.403.959 1.036.377.633.377 1.553 0 1.061-.556 1.918-.55.855-1.611 1.361-1.054.505-2.563.505-1.406 0-2.435-.454-1.023-.453-1.611-1.265-.582-.812-.659-1.886h1.637q.064.741.498 1.227a2.7 2.7 0 0 0 1.113.716q.677.23 1.457.23.907 0 1.63-.294.722-.3 1.144-.83a1.97 1.97 0 0 0 .422-1.253q0-.652-.364-1.062a2.7 2.7 0 0 0-.959-.664q-.595-.256-1.285-.448l-1.611-.46q-1.534-.441-2.429-1.26-.894-.818-.895-2.14 0-1.1.595-1.918.6-.825 1.611-1.279 1.016-.46 2.269-.46 1.266 0 2.25.454.984.447 1.559 1.227.582.78.614 1.77zM293.105 18V4.91h7.901v1.405h-6.315v4.424h5.906v1.406h-5.906v4.449h6.417V18zM169.592 29.315V27.91h9.818v1.406h-4.116V41h-1.585V29.315zm13.76-1.406V41h-1.585V27.91zM186.441 41V27.91h1.585v11.684h6.085V41zm17.194-9.818a2 2 0 0 0-.934-1.509q-.817-.537-2.007-.537-.869 0-1.521.282-.645.28-1.01.773-.358.492-.358 1.119 0 .525.249.9.256.372.652.621.397.243.831.403.435.153.799.249l1.33.358q.511.135 1.138.37.633.237 1.208.646.582.403.959 1.036t.377 1.553q0 1.061-.556 1.918-.55.856-1.611 1.361-1.055.505-2.563.505-1.407 0-2.436-.454-1.022-.453-1.61-1.265-.582-.812-.659-1.886h1.636q.064.741.499 1.227.441.48 1.112.716.678.23 1.458.23.907 0 1.63-.294.722-.3 1.144-.83a1.97 1.97 0 0 0 .422-1.254q0-.651-.365-1.06a2.7 2.7 0 0 0-.958-.665q-.595-.256-1.285-.448l-1.611-.46q-1.534-.441-2.429-1.26-.895-.817-.895-2.14 0-1.1.595-1.918.6-.825 1.61-1.279 1.017-.46 2.27-.46 1.265 0 2.25.454.984.447 1.559 1.227.582.78.614 1.77zm3.104-3.273h1.815l3.631 6.11h.154l3.63-6.11h1.816l-4.731 7.696V41h-1.585v-5.395zm23.387 0V41h-1.535l-7.133-10.278h-.128V41h-1.585V27.91h1.534l7.159 10.303h.128V27.91zM233.208 41V27.91h7.9v1.405h-6.315v4.424h5.906v1.406h-5.906v4.449h6.417V41zm9.951-11.685V27.91h9.819v1.406h-4.117V41h-1.585V29.315zM176.7 50.273V59h-1.023l-4.755-6.852h-.085V59h-1.057v-8.727h1.022l4.773 6.869h.085v-6.87zm4.656 8.863q-.887 0-1.556-.422a2.87 2.87 0 0 1-1.04-1.18q-.37-.758-.37-1.773 0-1.022.37-1.785.375-.764 1.04-1.185.67-.422 1.556-.422.887 0 1.551.422.668.422 1.04 1.185.375.763.375 1.785 0 1.014-.375 1.773-.372.76-1.04 1.18-.665.422-1.551.422m0-.903q.673 0 1.108-.345.434-.345.643-.908a3.5 3.5 0 0 0 .209-1.219q0-.656-.209-1.223a2.06 2.06 0 0 0-.643-.916q-.435-.35-1.108-.35-.674 0-1.108.35t-.644.916a3.5 3.5 0 0 0-.209 1.223q0 .657.209 1.22.209.561.644.907.434.345 1.108.345m4.519.767v-6.545h.971v.988h.068q.18-.486.648-.788a1.9 1.9 0 0 1 1.057-.303q.11 0 .277.005.167.004.251.012v1.023a3 3 0 0 0-.234-.038 2.3 2.3 0 0 0-.379-.03q-.478 0-.853.2-.37.196-.588.546a1.47 1.47 0 0 0-.213.788V59zm6.071 0-1.994-6.545h1.056l1.415 5.01h.068l1.398-5.01h1.074l1.381 4.994h.068l1.415-4.994h1.056L196.889 59h-.989l-1.431-5.028h-.103L192.935 59zm10.807.136q-.947 0-1.632-.417a2.8 2.8 0 0 1-1.053-1.176q-.366-.759-.366-1.765t.366-1.772a2.9 2.9 0 0 1 1.031-1.202q.665-.435 1.551-.435a3.1 3.1 0 0 1 1.01.17 2.5 2.5 0 0 1 .908.555q.41.38.652 1.005.243.627.243 1.543v.426h-5.046v-.87h4.023q0-.553-.221-.988a1.67 1.67 0 0 0-.623-.686 1.74 1.74 0 0 0-.946-.251q-.6 0-1.039.298-.435.294-.669.767a2.24 2.24 0 0 0-.235 1.014v.58q0 .741.256 1.257.26.51.72.78a2.1 2.1 0 0 0 1.07.264q.395 0 .716-.11.323-.116.558-.342.234-.23.362-.57l.972.272q-.155.495-.516.87a2.5 2.5 0 0 1-.895.579 3.3 3.3 0 0 1-1.197.204m6.9 2.455q-.73 0-1.253-.188a2.7 2.7 0 0 1-.874-.485 2.7 2.7 0 0 1-.549-.64l.801-.562q.136.18.345.409.208.234.571.405.366.174.959.175.792 0 1.308-.384.516-.383.516-1.202v-1.33h-.086q-.11.18-.315.444a1.8 1.8 0 0 1-.58.464q-.375.2-1.014.2a2.73 2.73 0 0 1-1.423-.374 2.63 2.63 0 0 1-.993-1.091q-.362-.716-.362-1.739 0-1.005.354-1.751.352-.75.984-1.16.63-.413 1.457-.413.64 0 1.015.213.379.21.579.478.205.264.315.434h.103v-1.04h.971v6.733q0 .844-.383 1.373a2.2 2.2 0 0 1-1.023.78 3.9 3.9 0 0 1-1.423.25m-.034-3.597q.605 0 1.022-.277.418-.276.635-.797.218-.519.218-1.244 0-.707-.213-1.248a1.9 1.9 0 0 0-.631-.848q-.418-.307-1.031-.307-.64 0-1.066.324a1.97 1.97 0 0 0-.635.869 3.4 3.4 0 0 0-.208 1.21q0 .682.213 1.206.218.52.639.818.426.294 1.057.294M214.341 59v-6.545h1.006V59zm.512-7.636a.72.72 0 0 1-.508-.2.64.64 0 0 1-.208-.482q0-.282.208-.482a.72.72 0 0 1 .508-.2q.294 0 .502.2a.64.64 0 0 1 .213.482.64.64 0 0 1-.213.481.7.7 0 0 1-.502.2m4.28 7.79q-.622 0-1.129-.235a1.94 1.94 0 0 1-.806-.686q-.298-.452-.298-1.091 0-.562.222-.912a1.56 1.56 0 0 1 .592-.554q.37-.2.818-.298.452-.102.908-.162.597-.077.967-.115.375-.043.546-.14.174-.099.174-.342v-.034q0-.63-.345-.98-.34-.35-1.035-.35-.72 0-1.13.316-.408.316-.575.673l-.954-.34q.255-.597.681-.93.43-.336.938-.468.511-.137 1.006-.137.315 0 .724.077.413.073.797.303.388.23.643.694.256.465.256 1.245V59h-1.006v-.886h-.051a1.8 1.8 0 0 1-.341.456q-.238.242-.635.413-.396.17-.967.17m.153-.904q.597 0 1.006-.234a1.59 1.59 0 0 0 .835-1.385v-.92q-.063.075-.281.14-.213.06-.494.106a23 23 0 0 1-.963.128q-.393.051-.733.166a1.26 1.26 0 0 0-.546.337q-.204.222-.204.605 0 .525.388.793.392.264.992.264m5.706-3.187V59h-1.005v-6.545h.971v1.022h.085q.231-.499.699-.8.47-.308 1.21-.308.665 0 1.164.273.499.269.775.818.277.546.277 1.38V59h-1.005v-4.09q0-.772-.401-1.203-.4-.434-1.099-.434-.482 0-.861.208-.376.21-.592.61-.218.4-.218.971M241.576 53h-1.057a2.2 2.2 0 0 0-.328-.801 2.2 2.2 0 0 0-.562-.58 2.4 2.4 0 0 0-.729-.358 3 3 0 0 0-.835-.119q-.793 0-1.436.4-.64.402-1.019 1.181-.375.78-.375 1.913t.375 1.914q.38.78 1.019 1.18.643.4 1.436.4.435 0 .835-.119.4-.12.729-.353a2.25 2.25 0 0 0 .89-1.385h1.057a3.5 3.5 0 0 1-.434 1.197 3.28 3.28 0 0 1-1.837 1.458q-.58.19-1.24.191-1.116 0-1.986-.545t-1.368-1.551-.498-2.387.498-2.386 1.368-1.551 1.986-.546q.66 0 1.24.192.584.192 1.052.563.469.366.785.895.315.523.434 1.197m4.249 6.136q-.887 0-1.556-.422a2.87 2.87 0 0 1-1.04-1.18q-.37-.758-.37-1.773 0-1.022.37-1.785.375-.764 1.04-1.185.67-.422 1.556-.422.887 0 1.551.422.669.422 1.04 1.185.375.763.375 1.785 0 1.014-.375 1.773-.371.76-1.04 1.18-.665.422-1.551.422m0-.903q.673 0 1.108-.345.434-.345.643-.908a3.5 3.5 0 0 0 .209-1.219q0-.656-.209-1.223a2.06 2.06 0 0 0-.643-.916q-.435-.35-1.108-.35-.674 0-1.108.35t-.644.916a3.5 3.5 0 0 0-.209 1.223q0 .657.209 1.22.209.561.644.907.434.345 1.108.345m4.519.767v-6.545h.971v1.022h.086q.204-.524.66-.814.456-.294 1.095-.294.648 0 1.078.294.435.29.678.814h.068a1.9 1.9 0 0 1 .754-.805q.504-.303 1.206-.303.878 0 1.436.55.56.546.559 1.7V59h-1.006v-4.38q0-.726-.396-1.036a1.47 1.47 0 0 0-.934-.311q-.69 0-1.069.417-.38.414-.379 1.049V59h-1.023v-4.483q0-.558-.362-.9-.363-.344-.934-.344-.391 0-.733.208-.336.21-.545.58a1.7 1.7 0 0 0-.205.848V59zm10.447 2.455v-9h.972v1.04h.119q.11-.172.307-.435.2-.269.571-.478.375-.213 1.014-.213.827 0 1.458.414.63.413.984 1.172t.354 1.79q0 1.039-.354 1.802-.353.759-.98 1.176a2.56 2.56 0 0 1-1.445.413q-.63 0-1.01-.208a1.9 1.9 0 0 1-.583-.482 6 6 0 0 1-.316-.452h-.085v3.46zm.989-5.728q0 .742.217 1.309.218.562.635.882.418.315 1.023.315.63 0 1.053-.332.426-.337.639-.904.217-.57.217-1.27 0-.69-.213-1.244a1.9 1.9 0 0 0-.635-.882q-.422-.328-1.061-.328-.614 0-1.031.31a1.86 1.86 0 0 0-.631.862q-.213.55-.213 1.282m9.086 3.41q-.945 0-1.632-.418a2.8 2.8 0 0 1-1.052-1.176q-.367-.759-.367-1.765t.367-1.772q.37-.771 1.031-1.202.665-.435 1.551-.435a3.1 3.1 0 0 1 1.01.17q.498.172.908.555.409.38.652 1.005.242.627.242 1.543v.426h-5.045v-.87h4.023q0-.553-.222-.988a1.67 1.67 0 0 0-.622-.686 1.74 1.74 0 0 0-.946-.251q-.601 0-1.04.298-.435.294-.669.767a2.26 2.26 0 0 0-.234 1.014v.58q0 .741.255 1.257.26.51.721.78.46.264 1.069.264.396 0 .716-.11.324-.116.558-.342a1.55 1.55 0 0 0 .363-.57l.971.272q-.153.495-.515.87a2.5 2.5 0 0 1-.895.579 3.3 3.3 0 0 1-1.198.204m7.105-6.682v.852h-3.392v-.852zm-2.404-1.569h1.006v6.239q0 .426.124.64.127.208.324.28.2.069.421.069.166 0 .273-.017l.171-.035.204.904a2 2 0 0 1-.285.077 2 2 0 0 1-.465.042q-.426 0-.835-.183a1.66 1.66 0 0 1-.673-.558q-.264-.376-.265-.946zM279.502 59v-6.545h1.005V59zm.511-7.636a.72.72 0 0 1-.507-.2.65.65 0 0 1-.209-.482q0-.282.209-.482a.72.72 0 0 1 .507-.2.7.7 0 0 1 .503.2.64.64 0 0 1 .213.482.64.64 0 0 1-.213.481.7.7 0 0 1-.503.2m5.201 1.09v.853h-3.392v-.852zm-2.403-1.568h1.005v6.239q0 .426.124.64.127.208.324.28.2.069.422.069.165 0 .272-.017l.171-.035.204.904a2 2 0 0 1-.285.077 2 2 0 0 1-.465.042q-.426 0-.835-.183a1.66 1.66 0 0 1-.673-.558q-.264-.376-.264-.946zM286.745 59v-6.545h1.005V59zm.511-7.636a.72.72 0 0 1-.507-.2.65.65 0 0 1-.209-.482q0-.282.209-.482a.72.72 0 0 1 .507-.2.7.7 0 0 1 .503.2.64.64 0 0 1 .213.482.64.64 0 0 1-.213.481.7.7 0 0 1-.503.2m5.013 7.772q-.885 0-1.555-.422a2.87 2.87 0 0 1-1.04-1.18q-.37-.758-.37-1.773 0-1.022.37-1.785.375-.764 1.04-1.185.67-.422 1.555-.422.886 0 1.552.422.669.422 1.039 1.185.375.763.375 1.785 0 1.014-.375 1.773-.37.76-1.039 1.18-.666.422-1.552.422m0-.903q.674 0 1.108-.345t.644-.908a3.5 3.5 0 0 0 .209-1.219q0-.656-.209-1.223a2.06 2.06 0 0 0-.644-.916q-.434-.35-1.108-.35-.673 0-1.108.35a2.06 2.06 0 0 0-.643.916 3.5 3.5 0 0 0-.209 1.223q0 .657.209 1.22.209.561.643.907.435.345 1.108.345m5.525-3.17V59h-1.005v-6.545h.971v1.022h.085q.231-.499.699-.8.47-.308 1.21-.308.665 0 1.164.273.499.269.775.818.277.546.277 1.38V59h-1.005v-4.09q0-.772-.401-1.203-.4-.434-1.099-.434-.482 0-.861.208-.375.21-.592.61-.218.4-.218.971M307.713 59h-1.108l3.205-8.727h1.091L314.105 59h-1.108l-2.608-7.347h-.068zm.409-3.41h4.466v.938h-4.466zm11.349.734v-3.87h1.006V59h-1.006v-1.108h-.068a2.14 2.14 0 0 1-.716.848q-.486.345-1.227.345-.614 0-1.091-.268a1.9 1.9 0 0 1-.75-.818q-.273-.55-.273-1.385v-4.16h1.006v4.091q0 .716.401 1.142.405.427 1.031.427.375 0 .763-.192.392-.192.656-.588.268-.396.268-1.01m5.713-3.87v.853h-3.392v-.852zm-2.404-1.568h1.006v6.239q0 .426.124.64a.64.64 0 0 0 .323.28q.201.069.422.069.166 0 .273-.017l.17-.035.205.904a2 2 0 0 1-.286.077 2 2 0 0 1-.464.042q-.427 0-.835-.183a1.66 1.66 0 0 1-.674-.558q-.264-.376-.264-.946zm5.081 4.176V59h-1.006v-8.727h1.006v3.204h.085q.23-.507.69-.805.465-.303 1.236-.303.67 0 1.172.269.503.264.78.814.28.544.281 1.389V59h-1.006v-4.09q0-.78-.404-1.207-.4-.43-1.113-.43-.494 0-.886.208-.388.21-.614.61-.22.4-.221.971m8.761 4.074q-.886 0-1.555-.422a2.86 2.86 0 0 1-1.04-1.18q-.37-.758-.371-1.773 0-1.022.371-1.785.374-.764 1.04-1.185.669-.422 1.555-.422.887 0 1.551.422a2.8 2.8 0 0 1 1.04 1.185q.375.763.375 1.785 0 1.014-.375 1.773-.37.76-1.04 1.18-.664.422-1.551.422m0-.903q.673 0 1.108-.345t.643-.908q.21-.562.209-1.219 0-.656-.209-1.223a2.06 2.06 0 0 0-.643-.916q-.435-.35-1.108-.35t-1.108.35q-.435.35-.643.916-.21.567-.209 1.223 0 .657.209 1.22.208.561.643.907.435.345 1.108.345m4.519.767v-6.545h.972v.988h.068q.178-.486.648-.788a1.9 1.9 0 0 1 1.056-.303q.111 0 .277.005.166.004.252.012v1.023a3 3 0 0 0-.235-.038 2.3 2.3 0 0 0-.379-.03 1.8 1.8 0 0 0-.852.2q-.37.196-.588.546a1.47 1.47 0 0 0-.213.788V59zm4.483 0v-6.545h1.006V59zm.511-7.636a.72.72 0 0 1-.507-.2.65.65 0 0 1-.209-.482q0-.282.209-.482a.72.72 0 0 1 .507-.2.7.7 0 0 1 .503.2.64.64 0 0 1 .213.482.64.64 0 0 1-.213.481.7.7 0 0 1-.503.2m5.201 1.09v.853h-3.392v-.852zm-2.403-1.568h1.005v6.239q0 .426.124.64.127.208.324.28.2.069.422.069.166 0 .272-.017l.171-.035.204.904a2 2 0 0 1-.285.077 2 2 0 0 1-.465.042q-.426 0-.835-.183a1.66 1.66 0 0 1-.673-.558q-.264-.376-.264-.946zm4.582 10.569q-.256 0-.456-.043a1.2 1.2 0 0 1-.277-.077l.255-.886q.368.093.648.068a.78.78 0 0 0 .499-.251q.22-.222.405-.72l.187-.512-2.42-6.58h1.09l1.807 5.216h.068l1.807-5.215h1.091l-2.778 7.5a2.8 2.8 0 0 1-.465.839q-.277.337-.643.499a2 2 0 0 1-.818.162"/>
</svg>
