<svg xmlns="http://www.w3.org/2000/svg" fill="none" viewBox="0 0 370 323">
  <path fill="#650d0e" d="M82.59 65.262c-.997-.52-2.138-.955-2.651-1.908.068-1.276 4.835-11.044 5.749-13.075 4.267-9.48 3.497-20.35 11.824-27.67 10.942-9.62 28.247-10.863 38.361.707 6.559 7.481 3.743 18.27 4.842 27.32.399 3.355 2.469 8.856 3.48 12.444-2.819.99-4.703 1.504-7.618 2.195-1.222 3.943-1.709 5.229-4.968 7.969 2.889 2.69 5.433 6.459 5.201 10.666-.469 8.545-6.278 25.181-10.157 32.839-3.17 6.258-8.81 13.466-11.363 20.327-.281.755.226 1.401.68 1.898 1.528.866 11.616.888 13.854.112 3.89-1.349 8.89-3.222 12.533-5.146-1.57 6.276-1.699 15.056.415 21.269 2.828-.311 12.459-.751 14.957.86.919.593 2.652 4.725 3.256 6.085-8.058 2.269-13.59-.51-19.682 3.027-1.863-1.093-7.527-3.731-9.175-1.734.91 1.202 6.268 2.52 8.229 3.314 9.998 4.05 23.936 13.238 21.95 25.887-2.27 14.453-17.653 20.842-26.075 33.167.911 4.69 3.138 14.391 3.523 18.658l-.426.383c.161.745.543 1.973.303 2.62-1.23-.657-.665-1.458-1.836-2.924-.639-1.166-2.155-10.717-2.547-12.672l-7.751-38.196c-1.471-7.286-2.8-14.634-4.605-21.841-1.796-7.167-4.89-8.739-11.773-9.181-3.818.05-7.738.194-11.57.111-2.696-.058-4.433-2.955-2.59-4.756l.622.161c.384.741.61 1.383.898 2.157l.677.472c4.875.142 12.129.141 16.796.156 2.532-.157 16.353.413 17.137-.266-1.01-1.804-3.464-2.048-4.747-2.98l.116-.772c.441-.334.811-.443 1.324-.663l3.481 1.316c1.089 1.339 2.288 3.95 4.033 3.705.141-.378-.213-4.49-.273-5.322-.854-.274-5.251-.193-6.825-.32-.799.022-1.18.032-1.962.184-9.207 3.299-12.904 2.774-22.726 2.014-7.172-.555-9.213.405-13.887-6.655-3.257-4.92-5.772-10.19-8.493-15.416l-13.019-25.254c-1.105-2.186-4.9-10.24-6.507-11.178-.555 2.038 7.368 15.536 8.785 18.73-7.85 7.188-16.249 7.345-25.545 9.64 1.087-3.709 1.165-7.383 2.12-10.599.954-3.215 4.266-6.829 5.82-10.727 4.314-10.824 6.453-30.034 17.172-36.6 1.442-.882 8.536-3.69 10.633-4.538m46.754 125.134c-.062.574-.208 1.597-.159 2.133 2.025-.274 5.217-2.211 8.875-2.795 3.173-.548 9.778-.801 11.703 2.2l-.098.321c-2.997-.387-6.976-1.344-10.017-1.045-4.421.957-3.804 1.082-7.461 2.277-1.003.466-1.202.55-2.059 1.287-.418 1.24 4.963 25.732 5.651 28.576 6.382-10.561 23.079-18.492 24.604-30.945 2.122-17.331-27.507-27.831-40.392-29.309 5.42 4.961 5.552 11.033 7.082 17.808.463 2.047.946 4.55 1.135 6.631l.255.348c.832.061 1.923-.925 2.721-1.438 1.824-1.173 3.468-1.996 5.483-2.771 2.238-.567 6.777-1.48 8.859-.502l.051.455c-1.884 1.348-5.868 1.277-8.281 1.58-3.65 1.46-4.989 2.592-7.952 5.189m2.725-119.75c1.697-2.633 7.25-17.393 6.604-20.15-1.881-.682-4.413 1.416-5.606-.283.081-1.234-.087-.782.572-1.754 2.044-1.12 3.651-.246 4.821-2.442.083-.898.112-1.229.037-2.149-1.34.721-3.992 2.072-5.362 1.22l.212-.639c1.488-1.378 2.862-1.636 4.833-2.087.575-1.45-2.55-11.164-3.835-12.252-2.4-.453-6.025 1.316-8.313 2.328-2.738-.723-5.152-.939-7.712.578-4.25 2.518-9.306 15.83-11.331 15.35-1.748-.415-2.85-2.43-4.944-1.32-.971.514-1.576 1.29-1.881 2.345-.443 1.53-.363 3.805.453 5.205.497.851 1.279 1.295 2.22 1.504 1.663.37 3.44.23 4.908 1.212 5.329 3.565 6.701 12.78 15.829 14.751 2.909.629 5.919-.015 8.495-1.418m-18.978 7.266c1.305-1.939 4.956-3.868 7.078-4.946-3.301-2.014-4.455-2.682-7.039-5.627-1.375-1.568-4.388-6.403-5.63-7.248.66 3.734 1.385 7.44 1.691 11.22-1.545-.057-3.562-.07-5.064-.22 1.243 2.129 5.291 9.418 8.286 8.307.245-.507.473-.962.678-1.486M125.676 93.1l-.136-.683c-.917.753-.749 4.267-.467 5.418l.523.296.454-.27c.434-1.338-.032-3.424-.374-4.761m-32.494 45.763c2.66-.14 7.141-.167 9.083-2.125l.084-.632-.215-.263c-2.353.813-8.483 1.685-9.204 2.178.03.67-.101.417.252.842m-4.26-48.939c-.779-.674-1.482-1.286-2.306-1.907l-.292.16c.421 1.243 1.224 1.798 2.213 2.684.726.859 1.308 1.742 2.4 1.837l.028-.602c-.577-1.137-1.02-1.389-2.043-2.172m5.235 11.906c1.138 2.157 2.067 6.193 2.888 8.125 1.753 4.124 7.531 18.969 9.938 21.625l.245-.081c.496-2.404-10.938-26.063-12.408-30.764l-.088-.288-.69-1.817-.546-.599c-.406.456-.275.328-.29 1.123 1.318 1.608.362 1.546.951 2.676m22.75-24.572c-.579 1.226-.85 2.13-.263 3.44l.338.097c.296-.94.824-2.27.66-3.192zm.461 18.472c-6.87-5.513-12.122-7.615-13.882-17.372-.243-1.343-1.132-6.772-2.491-7.104-.971 2.703 1.847 9.953 2.748 12.422 2.348 6.433 6.632 9.004 11.884 12.599.658.45 2.383 4.288 3.147 4.597.132-.264-.387-10.293-.507-11.275-.15-1.896-.211-5.69-1.412-7.112-.658 1.166-.193 7.459.106 8.874-.119.98.265 3.286.407 4.371m-12.483 42.81c-.949-.018-6.88 1.714-7.619 2.689-1.187.546-2.805 1.191-3.759 2.023l.023.455c1.544.568 2.913-.712 3.844-.043 1.015 2.298-1.363 3.194 3.644 3.421 3.643.178 7.267-6.625 4.857-8.827l-.744.305a.8.8 0 0 0-.246-.023m32.854 17.251c2.614 3.186.572 7.695 4.561 6.617.386-1.893-.616-5.312-2.178-6.533-.995-.129-1.395-.117-2.383-.084M99.063 88.4c.39 5.48 5.442 6.915 8.536 10.462 3.804 4.361 7.744 10.412 8.406 16.252.706 5.55-3.888 16.634-3.503 19.904l.312.175c1.592-1.501 2.412-5.838 2.94-8.1.846-3.593 4.506-23.491 2.518-25.469-1.002 2.074-.921 6.663-1.857 7.937-1.585-1.742-3.674-6.814-5.121-8.808-2.613-3.6-6.873-6.154-9.717-9.554-1.196-1.429-1.031-2.107-2.514-2.8m43.289 67.245c.14 1.229 1.498 2.767 2.079 5.545 4.472.002 8.917-.346 13.251-.33.183-1.003-.692-2.641-1.241-3.492-4.25-.463-9.904-.153-13.64-1.581-.339-.13.111 0-.449-.142"/>
  <path fill="#530810" d="M111.121 162.662c-3.819.05-7.739.194-11.572.111-2.695-.058-4.431-2.955-2.588-4.756l.621.161c.384.741.61 1.383.898 2.157l.677.472c4.875.142 12.129.141 16.796.156-6.075 1.272-11.197.311-16.735 1.072 2.612.12 9.888-.084 11.903.627M119.901 44.226c2.116-.131 6.366-.332 7.659 1.812l-.282.477c-1.059.499-2.341.129-3.525-.075-1.555-.101-6.92 1.063-7.654-.407.65-1.138 2.586-1.483 3.802-1.807"/>
  <path fill="#550912" d="M124.33 49.381c1.493.103 1.779.037 2.632 1.177.109 1.301.203.779-.388 1.975-1.699 1.441-2.667.578-3.881-.76-1.122.54-2.251 1.374-3.254.408.451-2.077 3.201-2.492 4.891-2.8"/>
  <path fill="#380106" d="M125.511 62.666c1.66-.319 7.609-.15 8.746.855l-.127.806c-1.901.389-5.432.564-7.449.037-.729-.191-.923-1.044-1.17-1.698"/>
  <path fill="#601624" d="m103.574 48.553.478.603c-.132.968-.988 1.881-1.613 2.698a83 83 0 0 1 1.767.95c1.077.61 1.233.641 1.508 1.61-.94-.03-2.286-.477-2.995-1.098a2.4 2.4 0 0 1-.828-1.74c-.044-1.319.836-2.136 1.683-3.023"/>
  <path fill="#380106" d="M131.961 57.706c.888-.061 1.385-.19 2.108.348l.042.544c-.925 1.033-.796.756-2.289 1.243-.889.067-1.006.131-1.754-.272l-.087-.399c.815-1.145.585-.813 1.98-1.464"/>
  <path fill="#601624" d="M128.269 65.582c1.916-.065 3.216-.156 3.457 2.074-1.074.12-2.06.334-3.066-.03-.652-.885-.444-.699-.391-2.044M118.267 89.597c.12.982.639 11.011.507 11.275-.764-.309-2.489-4.147-3.147-4.597-5.252-3.595-9.536-6.166-11.884-12.599-.901-2.469-3.719-9.72-2.748-12.422 1.359.332 2.248 5.76 2.491 7.104 1.76 9.757 7.012 11.859 13.882 17.372-.142-1.085-.526-3.392-.407-4.371.104-.81.169-1.445.218-2.267l.414.682z"/>
  <path fill="#1e0206" d="m94.732 100.447.088.288c1.47 4.701 12.904 28.36 12.408 30.764l-.245.081c-2.407-2.656-8.185-17.501-9.938-21.625-.82-1.932-1.75-5.968-2.888-8.125.071-.25.452-1.096.575-1.383"/>
  <path fill="#601624" d="m105.131 138.563.743-.305c2.411 2.202-1.213 9.005-4.856 8.827 2.709-1.737 4.478-4.401 6.255-7.07l-.192.113c-2.495 1.503-6.035 5.796-8.31 5.038-.694-1.812 2.107-3.007 2.784-4.984-1.053-.024-3.182.717-4.29 1.047.74-.975 6.67-2.707 7.62-2.689a.78.78 0 0 0-.02 1.551.779.779 0 0 0 .266-1.528"/>
  <path fill="#380106" d="m128.207 187.535.255.348c.832.061 1.923-.925 2.721-1.438a28.6 28.6 0 0 1 5.484-2.771l1.213.504-.114.142c-.262.327-.467.488-.47.887-3.65 1.46-4.989 2.592-7.953 5.189-.982-.943-1.502-1.47-1.136-2.861"/>
  <path fill="#530810" d="M138.06 189.734c3.173-.548 9.777-.801 11.703 2.2l-.099.321c-2.997-.387-6.976-1.344-10.016-1.045l.811-.927-.263-.393z"/>
  <path fill="#601624" d="M129.185 192.529c2.025-.274 5.216-2.211 8.874-2.795l2.137.156.263.393-.811.927c-4.422.957-3.805 1.082-7.462 2.277-1.192-.139-1.671-.671-3.001-.958"/>
  <path fill="#550912" d="M136.667 183.674c2.238-.567 6.777-1.48 8.858-.502l.052.455c-1.885 1.348-5.868 1.277-8.281 1.58.003-.399.209-.56.47-.887l.114-.142z"/>
  <path fill="#530810" d="M138.497 43.868c-1.34.721-3.992 2.072-5.361 1.22l.211-.639c1.489-1.378 2.862-1.636 4.833-2.087-.004 1.006-.168.88.317 1.506"/>
  <path fill="#601624" d="M116.961 91.359c-.299-1.415-.764-7.707-.106-8.874 1.201 1.421 1.262 5.216 1.412 7.112l-.674.177-.414-.682a31 31 0 0 1-.218 2.267M125.072 97.835c.098-1.47-.073-3.674.604-4.735.342 1.337.808 3.423.374 4.761l-.454.27zM88.537 90.861l.385-.937c1.023.783 1.466 1.035 2.043 2.172l-.027.602c-1.093-.095-1.675-.978-2.4-1.837M116.908 77.258l.734.345c.164.923-.363 2.252-.659 3.192l-.339-.097c-.587-1.31-.315-2.214.264-3.44"/>
  <path fill="#601624" d="M88.537 90.861c-.989-.886-1.792-1.44-2.213-2.684l.291-.16c.825.621 1.528 1.233 2.307 1.907zM94.041 98.63l.69 1.817c-.122.287-.503 1.133-.574 1.383-.59-1.13.366-1.068-.95-2.676zM125.073 97.835c-.282-1.151-.45-4.665.468-5.418l.135.683c-.677 1.06-.506 3.266-.603 4.735M105.13 138.563a.779.779 0 1 1-.388 1.508.779.779 0 0 1 .388-1.508"/>
  <path fill="#601624" d="M93.207 99.154c.014-.795-.117-.667.289-1.123l.545.599z"/>
  <path fill="#650d0e" d="M300.837 96.154c12.188 1.283 14.924 3.809 27.499-2.43 3.779 7.555 8.899 18.555 11.445 26.486 1.429 4.459 1.919 15.879 2.152 20.95q.549 12.105.852 24.218c.139 5.706-.692 12.466-.108 17.775.695 6.344 11.378 11.781 8.019 19.65-.786 1.843-3.074 6.722-5.078 7.382l-.17.058c-4.836 1.598-13.083-2.226-21.534 1.065 3.022-8.487 3.857-16.806 4.446-25.728.163-2.469-.109-8.342.405-10.095l-.287-.314c-1.028.693-1.421 1.411-1.508 2.315-.351 3.654-2.283 33.242-5.665 33.782-6.282 1.002-36.734-9.002-42.683-11.366l-.132-.052c-2.754-3.577-4.363-14.98-2.948-19.475l-.173-.423c2.947.095 7.264 1.751 10.434 2.274 1.702.28 9.03.072 9.926 1.116 1.267 1.477.453 10.315 3.544 10.424 1.171-2.156-1.51-8.309-.497-10.078l.655.031c.953 1.064 1.427 7.012 2.412 9.567.799.646.409.503 1.479.504.347-.422.674-.788.474-1.405-2.011-6.294-2.037-11.617-2.25-18.157-.106-.418-.144-1.632-.174-2.128-.071-2.992-.329-4.634-1.236-7.485-.163-1.487.05-1.746-.719-2.78l-.604.046c-.751.933-1.056 2.108-.37 3.178q.384 3.31.609 6.634c.088 1.316.193 4.086.484 5.26.066 1.621.27 2.66-.689 3.879-1.622.556-13.767-1.187-16.302-1.561-.562-.083-1.067-.922-1.226-1.479-4.959-17.433-4.453-35.35-1.793-53.104.489-3.255 1.311-9.138 2.849-12.043 4.286-1.433 14.579-12.79 18.462-16.491m31.193 38.343c0-.5-.106-.96-.197-1.453l-.296.059-.514 1.078c-.701 3.587-2.763 15.532-1.29 18.658.281.296.529.446.861.676.496-.44.363-.939.441-1.79.082-4.123.675-13.04.995-17.228m-37.249-12.101c-1.098 3.44-.88 9.547-.499 13.261.101.982.765 1.556 1.613 2.012.78-3.144.055-11.792-.761-14.874zm1.629 26.728.293.702.386-.016c.318-1.237.107-1.933-.117-3.202-.206-2.042.004-6.351-.964-7.329-.791-.313-.929-.545-1.546-.286.193 1.345.932 1.31.994 1.679.526 3.106-.482 5.44.954 8.452m2.558 4.956.093-.642-.508-.004-.013.795z"/>
  <path fill="#601624" d="m294.781 122.396.353.399c.815 3.082 1.541 11.73.761 14.874-.848-.456-1.512-1.03-1.613-2.012-.381-3.714-.599-9.821.499-13.261M296.409 149.124c-1.435-3.012-.428-5.346-.954-8.452-.062-.369-.801-.334-.994-1.679.617-.259.755-.027 1.547.286.967.978.757 5.287.964 7.329-.056 1 .029 1.757-.563 2.516"/>
  <path fill="#601624" d="M296.972 146.608c.223 1.269.434 1.965.117 3.202l-.386.016-.294-.702c.592-.759.507-1.516.563-2.516M329.732 152.839l1.303-1.114c-.078.851.055 1.35-.441 1.789-.333-.229-.58-.379-.862-.675M331.023 134.181l.514-1.078.297-.059c.09.493.196.953.196 1.453zM298.552 153.434l.508.004-.093.642-.428.149z"/>
  <path fill="#650d0e" d="M267.982 113.649c-3.399-9.052-6.34-19.201-9.184-28.493-2.814-9.196-6.064-19.959-7.384-29.418-.766-5.498 1.697-16.904 5.418-21.131 4.681-5.317 16.638-13.477 23.872-14.281 5.083-.565 10.674 3.211 14.409 6.256 17.725 14.455 19.753 33.054 21.676 54.38-1.279.682-3.582 2.243-4.35.055-1.194-3.398-2.146-6.923-3.18-10.381a497 497 0 0 0-6.868-21.84c-.729-2.084-2.759-8.912-4.773-9.322l-.528.502c-.084.788.098 1.794.394 2.52 3.819 9.344 6.796 19.038 9.74 28.694 1.503 4.927 3.25 10.196 4.347 15.211-1.324 1.273-4.658 3.988-6.432 4.313-1.977-1.096-3.172-9.9-3.897-12.327-1.226-4.109-9.189-43.194-15.106-40.248-.382 1.94 3.288 5.99 4.077 8.34 5.093 15.177 8.609 31.159 12.268 46.77l-1.762 2.474.118.43c-3.883 3.701-14.176 15.059-18.462 16.492-.433-.028-4.631 1.31-5.407 1.532-2.84-5.39-10.183-32.14-13.636-34.644l-.298.298c-.045 3.664 4.016 13.43 5.446 17.417 1.596 4.448 3.712 11.278 5.722 15.312-2.463.267-3.806.516-6.22 1.089"/>
  <path fill="#601624" d="M72.624 120.021c1.269.034 3.564 5.331 4.171 6.52 4.517 8.837 8.63 18.002 14.431 26.099 1.216 1.697 2.836 3.434 3.752 5.274l-.22.518c-1.25.863-3.534.292-4.975.105-13.287-1.719-27.034-.2-40.22 1.593-1.74.237-2.918-5.194-4.186-5.857-4.88-2.551-11.98 3.213-14.823 6.997-2.552 3.926-3.073 8.754-2.545 13.338 3.497 30.391 39.042 21.881 60.023 21.202 2.348-.076 7.685-1.079 9.527.382l-.404.484c-4.567 1.956-30.03 2.659-35.968 2.624-16.903-.291-31.47-4.787-46.002-13.185-1.55-.897-5.988-2.798-6.295-4.369l.449-.247c2.387.248 5.92 2.382 8.142 3.569 5.815 3.106 11.711 5.538 17.794 8.075-5.577-5.957-8.055-9.097-9.156-17.584-.924-7.125.503-10.449 2.841-16.987.559-1.562.586-4.513 1.864-5.781 5.791-5.743 18.54-2.869 26.096-3.692l.15-.538c-1.257-.771-6.016-.871-7.73-.991-8.33-.587-13.545-.585-20.38 4.715 2.742-7.085 5.19-7.65 9.537-13.256.828-1.068.938-5.558 2.29-6.996 4.419-4.698 12.556-3.172 18.288-5.448 5.539-1.972 8.789-3.656 13.549-6.564m-.347 29.104c-.177-1.295-1.43-1.117-2.565-1.203l-.001.697c.819.455 1.636.44 2.566.506m-11.07.305-.162-.238-.067.015z"/>
  <path fill="#601624" d="M69.712 147.922c1.135.086 2.388-.092 2.565 1.203-.93-.066-1.747-.051-2.566-.506z"/>
  <path fill="#530810" d="M104.961 219.931c-1.53-4.362-5.518-17.713-5.707-21.656-.1-2.555.288-5.106 1.143-7.515.852-2.449 5.222-10.571 7.963-9.281.095.93-2.74 4.585-3.457 5.553-6.672 9.001-2.453 16.813.357 26.572l6.977 24.668c1.265 4.495 3.204 10.772 4.068 15.25 10.06-.619 13.289-1.078 22.358-5.255-.372-1.298-.6-2.389-.867-3.715 1.171 1.466.606 2.267 1.836 2.924.24-.647-.142-1.875-.303-2.62l.426-.383c1.126 3.151 1.626 4.596-1.346 6.367 1.266 3.968.866 3.453 3.969 5.535.748.647 1.197 1.395 2.23.99 1.42-3.067 4.349-2.504 6.733-4.673 4.983-4.537 9.537-9.712 14.344-14.435.352.552.688 1.114 1.097 1.625-4.342 5.113-11.63 13.213-17.252 16.567 3.603 3.442 8.228 7.587 12.957 9.319 5.432-2.503 5.989-5.183 12.021-6.856.21-2.303.495-6.271 2.439-7.757.469.149.906.318 1.396.361-1.287 3.256-1.684 4.634-1.984 8.117 2.573 4.466 2.544 6.558 2.5 11.531-.105 11.84-.476 12.388-11.493 12.166-2.25.132-5.318.018-7.63-.005.55-.412 1.072-.46 1.312-.966-1.073.274-2.301.734-3.188.344l.132-.484c.907-.482 1.945-.399 2.99-.424l-1.955-.268c-3.153.416-1.494 1.477-2.945 2.235-1.392-.758-2.457-.921-4.005-.975l-.261-.14c-.35-.323-.854-.646-1.345-.611-7.752.546-14.844.664-22.613.388l-.112-.3-1.241-.832-.74.148c-4.059-.414-7.079-5.665-8.791-9.012-4.335-8.476 4.821-7.031 10.527-7.351-1.371-3.165-2.987-6.674-4.072-9.916-2.604.438-4.809.64-7.444.101-1.182-.242-1.143-1.044-1.891-2.187-.669.084-1.839 1.343-2.4 1.868-2.258-1.188-2.789-1.733-4.683-3.412-2.033 2.485-9.878 9.061-12.677 11.461-.73.624-.881.8-1.845.97l-.313-.252c.103-1.643 1.15-2.375 2.327-3.443 1.987-2.417 8.513-7.312 11.139-9.993-1.194-1.101-2.041-2.006-3.126-3.193.35-.545.819-.88 1.316-1.302 1.499 1.412 6.068 6.102 7.796 6.307 1.071-.416 1.746-1.276 1.479-2.456-2.078-9.198-5.411-18.261-7.506-27.454-2.063 2.577-6.507 9.547-8.666 11.076-2.178-1.882 6.426-11.361 8.026-13.321m65.109 61.417c1.577-.139 3.847-.116 5.489-.142l1.235-4.214c-4.742.261-9.674.6-14.413.596-2.816-.093-5.388-.757-8.233-.666-7.801.25-15.495 2.046-23.257 2.265-1.802.051-4.343-.904-5.937-1.674-.91-.599-2.003-1.489-3.029-1.512.039.782.545 1.274 1.157 1.834q.373.337.76.661c.593.326 2.122 1.12 2.589 1.474 8.496 1.786 16.659.041 25.173-.114 2.451-.044 5.225 1.479 7.524 1.449 3.76-.167 7.074.307 10.942.043m-34.168-29.675c-2.752 1.273-7.478 2.652-10.494 3.123 1.618 3.404 3.19 6.907 4.416 10.474 5.066-.569 5.587-1.858 10.206-4.189-2.126-2.819-2.928-8.643-3.762-9.372zm-18.035 16.315c2.053 3.981 7.6 8.725 12.14 9.165 6.075.857 13.09-2.163 18.967-2.037 9.521.205 18.276.389 27.805-.009.046-2.947.503-10.668-1.176-12.602-3.499-4.031-7.276 5.008-13.932 4.794-6.346-.204-11.559-9.571-14.741-9.904-.642.534-.449.204-.609 1.016l.514.584c2.263.475 3.004 1.541 4.361 3.413-.055 1.11-.009 2.774-.534 3.674-1.281.189-2.994-2.071-3.888-3.022l-.405.242c-.404 1.823 1.819 4.757 1.602 6.308l-.601.114c-2.353-1.706-1.784-6.684-2.545-9.059-.801.078-1.336.777-1.772 1.38-.413 1.612 1.026 2.623.391 3.909-.892-.91-1.935-2.186-3.123-2.441l-.5.35c-.674 2.183 1.059 1.558 1.623 3.317-1.982.752-1.534-1.126-3.572-1.418-2.454 1.357-.2 1.906-.95 3.57-.623-.106-1.61-1.824-2.389-2.69-.809.538.012 1.417-.756 2.851-.716-.406-.946-1.295-1.294-2.113-4.828-.093-9.801.277-14.616.608"/>
  <path fill="#380106" d="M123.842 278.496a27 27 0 0 1-.76-.661c-.612-.56-1.118-1.052-1.157-1.834 1.026.023 2.119.913 3.029 1.512z"/>
  <path fill="#601624" d="M126.431 279.97c8.496 1.786 16.659.041 25.173-.114 2.451-.044 5.225 1.478 7.524 1.449l-.101.222c-3.153.416-1.494 1.477-2.945 2.235-1.392-.758-2.457-.921-4.005-.976l-.261-.139c-.35-.323-.854-.646-1.345-.611-7.752.546-14.844.664-22.613.388l-.112-.3c.541-.579.945-.645 1.698-.833-1.12-.191-2.581-.204-3.013-1.321"/>
  <path fill="#601624" d="M159.128 281.305c3.76-.167 7.075.307 10.942.043l.237.056c1.279.296 2.424.319 3.725.381l-.538.708c-2.073.235-4.975-.229-6.128.837-2.25.132-5.317.018-7.629-.005.55-.412 1.071-.46 1.312-.966-1.074.274-2.301.734-3.189.344l.132-.484c.907-.482 1.946-.399 2.991-.424l-1.956-.268z"/>
  <path fill="#550912" d="M142.378 256.375c.748.647 1.197 1.395 2.23.99l.251.22c-.942 1.131-1.913 1.847-3.392 1.582-.794-.996-.565-.752-.787-2.13.665-.364.967-.436 1.698-.662M94.334 262.992c-.73.624-.881.8-1.845.97l-.313-.252c.103-1.643 1.15-2.375 2.327-3.443.28 1.31.4 1.502-.17 2.725"/>
  <path fill="#380106" d="M146.836 258.995c2.263.475 3.004 1.541 4.36 3.413-.054 1.109-.008 2.774-.534 3.674-1.281.189-2.993-2.071-3.888-3.022l-.404.242c-.405 1.823 1.818 4.757 1.602 6.308l-.601.114c-2.354-1.706-1.784-6.684-2.546-9.059 1.33-.826-.19-.887 2.011-1.67"/>
  <path fill="#550912" d="M227.967 134.913c1.045-3.488 4.037-13.302 6.592-15.455l.598-.163c.61.464.769.587.874 1.397.388 2.967-6.014 16.071-5.079 16.774 1.566 1.176 3.58 1.626 5.024 3.059 2.263 2.246 3.482 5.73 5.903 7.721 3.74 3.076 11.2 5.223 15.792 7.337 1.637.754 6.083 2.506 6.578 4.227-2.11 2.755-16.41 1.827-19.885 2.847l-.087.378c1.419 1.129 5.256 1.945 6.434 2.725 3.942 2.609 7.496 5.717 11.617 8.18 4.041 2.414 9.286 3.509 13.04 6.012l.174.423c-3.028 1.145-14.633-4.549-17.132-6.551-8.037-6.438-15.401-10.12-25.849-12.028-.888-.645-.85-.394-1.001-1.194l-.07.014c.927-.354 1.268-.401 2.213-.553 5.844 1.649 19.627-.595 26.953-.677-4.667-2.767-21.001-9.585-26.721-11.609-3.36.973-4.492 1.364-7.71-.112-.964 1.584-3.783 5.396-3.14 7.073l.91.152-.701.855c-1.296-.283-1.102-.026-1.74-.886-.425-2.869 1.171-6.703 2.156-9.533-2.515-2.254-4.5-4.691-4.729-8.215-.153-2.335 1.046-5.582 3.801-5.597 2.378-.012 3.897 1.664 5.185 3.399m5.645 10.817c1.477-.109 3.643 1.019 5.189 1.561-1.223-1.74-4.489-5.737-6.246-6.834-1.377 3.753-4.632 2.242-5.428 4.947 1.445 1.957 4.578.995 6.485.326m-13.009-9.107c.913 2.891 1.476 4.521 3.76 6.704l.563-.24c.38-1.251-.944-6.621-.768-9.282-.678-.645-.529-.453-1.639-.583-1.218 1.104-1.432 1.793-1.916 3.401"/>
  <path fill="#0b0001" d="m159.21 292.576.714.08.279.393c-.266.785-1.362 1.623-2.027 2.223-.649-.118-.373.028-.831-.494.258-.962 1.081-1.504 1.865-2.202"/>
  <path fill="#550912" d="M253.16 228.02c.091-1.765-5.102-5.305-5.732-7.249 1.524.52 1.476 1.334 3.23 2.258l.229.119c2.869 2.37 9.375 9.587 12.375 12.612l-1.414 1.341c-.874-.784-1.886-1.744-2.823-2.414-6.703.302-9.041.128-15.186-2.507a656 656 0 0 0 7.484 21.218c.778 2.075 5.27 12.841 4.974 14.116-1.498 1.061-2.867-.235-3.432.865.384.563 1.947 2.63 2.075 2.992.802.984 1.57 1.9 2.276 2.96-.286.878-.601 1.156-1.196 1.831-1.338-1.774-2.068-2.939-3.198-4.856-.84-.641-1.843-2.409-2.454-3.366l-11.783 1.297c.757 1.508 1.967 4.686 2.271 6.338.313 1.332.771 2.474-.209 3.605-1.037-.277-1.195-1.248-1.459-2.202-.472-.855-2.228-6.495-2.606-7.708-1.825.727-7.933 1.182-10.038 1.109-1.966-3.609-2.502-11.817-4.506-16.665-4.198-10.159-9.725-19.888-14.827-29.648.785-.653.936-.666 1.954-.821 8.06 14.817 16.326 28.182 18.433 45.05 3.835-.45 8.3-.771 12.186-1.175 3.496-.363 11.28-1.473 14.39-1.184-3.44-6.59-6.901-17.162-9.381-24.375-4.944-14.374-2.569-10.247-16.055-11.748-2.545-.283-4.578-.632-6.951-1.588 2.153-.547 1.512 1.023 3.73-.809 1.429.309 6.479 1.307 7.692.857l-.666-.623c-.512-1.295-.568-.944-.409-2.221 10.024 4.193 14.496 7.084 25.431 7.625a448 448 0 0 0-4.405-5.034"/>
  <path fill="#601624" d="M225.517 227.416c1.428.309 6.479 1.307 7.691.857.733.014.46-.128.903.305-.511.997-2.706.32-3.662.361.091-.004-1.586.817-1.711.874-2.546-.283-4.579-.632-6.952-1.588 2.153-.547 1.512 1.023 3.731-.809"/>
  <path fill="#530810" d="M252.821 271.306c.784.556 1.205.873 1.929 1.526.066-.48.124-.643-.021-1.116l.211-.345c.801.984 1.569 1.9 2.275 2.96-.285.878-.601 1.156-1.196 1.831-1.337-1.774-2.067-2.939-3.198-4.856"/>
  <path fill="#601624" d="M240.857 275.575c.312 1.332.77 2.474-.21 3.605-1.037-.277-1.195-1.248-1.459-2.202.825-.514 1.05-.623 1.669-1.403"/>
  <path fill="#550912" d="M271.999 242.7c3.401 1.869 6.614 4.022 10.073 5.802 12.595 6.481 25.171 8.579 39.182 8.584 4.053.001 8.712.407 12.611-.725 3.77-1.095 6.191-4.063 7.983-7.394 6.318-11.736.109-34.159 2.005-37.02.241.002.504-.077.677.106 1.813 1.891 2.618 22.938 2.418 26.662-.366 6.841-2.968 12.588-8.077 17.208 7.527-.796 15.55-1.185 23.137-1.548.807-.038 2.201.652 2.905 1.078l.281.448c-.734.569-11.75.873-13.748.903-16.2.243-33.185 5.877-48.958 7.06-.298-.134-.188-.064-.394-.347 1.3-.221 1.887-.392 3.147-.81.248-.339.321-.486.693-.713l-.073-.579c3.268-.663 6.369-1.033 9.589-1.637l.13-.283c-1.343-.81-13.077-1.529-16.743-2.513-9.675-2.597-18.294-6.381-26.664-11.86-1.471-.552-4.657-2.368-4.683-4.225l.393-.343c1.547.036 2.856 1.221 4.116 2.146"/>
  <path fill="#380106" d="M272.173 245.122c-1.471-.552-4.657-2.368-4.683-4.225l.393-.343c1.547.036 2.856 1.221 4.116 2.146-2.111-.161-.98-.722-2.298-.484l-.195.396c.821.863 1.813 1.449 2.81 2.1z"/>
  <path fill="#550912" d="M260.513 280.709c8.283 3.897 9.439 8.952 13.254 16.398.82 1.481 1.105 2.313 1.096 4.049-.818-.02-1.196-.155-1.973-.359l-.488-1.761-.506-.615c-.805.365-3.98 4.337-6.427 5.06-5.402 1.6-10.732.287-16.163.702-2.166.163-6.641 1.908-8.81 2.755-2.948 1.279-3.605 1.633-6.87 1.866-2.252-.127-5.335-.215-7.499-.542l.056.306c3.294 1.73 6.698 1.606 10.328 1.321 3.773-.453 5.538-1.131 8.896-2.818 1.326.623 1.51.656 2.977.707-1.51.645-2.981 1.752-4.782 2.486-5.565 2.278-11.879 2.577-17.519.509-4.306-1.579-11.183-9.716-9.146-14.448 1.769-.254 1.592-1.557 3.451-1.754l.457.962c-1.986 1.475-3.207 3.819-1.363 5.939 4.481 5.151 12.316 6.052 18.48 4.347 5.681-2.235 11.071-4.262 17.238-3.548 2.199.236 4.028.126 6.187-.238 15.255-2.575 6.891-14.319-1.314-19.62z"/>
  <path fill="#550912" d="M272.402 299.036c.174-.401.994-1.237 1.365-1.929.82 1.481 1.105 2.313 1.096 4.049-.818-.02-1.196-.154-1.973-.359z"/>
  <path fill="#530810" d="M17.232 171.058c-3.617-2.609-5.256-5.194-5.375-9.732-.56-21.424.846-43.171 6.6-63.9 1.573-5.664 3.986-11.897 8.441-15.88 4.393-4.028 11.878-6.743 17.784-6.46.82.596 5.574 1.358 6.712 1.379-7.788.238-17.814.976-23.561 7.033-12.54 13.214-14.68 58.575-14.026 76.348.128 3.471.815 6.285 3.419 8.711-.529 1.481-.485.871.006 2.501"/>
  <path fill="#590c10" d="M197.324 175.576c1.307-.805 3.414-1.429 4.674-2.558 2.494-2.233 5.333-6.449 8.171-8.148.275.536.556 1.139.886 1.633-6.752 5.489-12.866 19.588-17.777 27.656a1702 1702 0 0 1-18.517 29.519c-1.133 1.778-6.567 10.541-7.585 11.479l-1.279 1.555c-.362-.407-.494-.681-.758-1.145.107-3.03 25.65-39.689 28.668-46.665.832-1.925 6.07-10.719 7.454-13.056l-3.544 1.781-1.065-.758c.35-.464.487-.741.672-1.293"/>
  <path fill="#601624" d="M168.74 128.939c-9.81-2.088-15.541 2.439-23.723 6.277-.569.267-.802-.305-1.07-.708.154-.774.826-1.367 1.526-1.769 7.149-4.21 14.602-7.595 23.113-6.033 2.437.448 5.257 2.149 7.607 3.031 2.633.989 5.596 1.429 7.698 3.404l.217.544c-.997 2.282-5.788 3.735-7.697 5.26-1.334 1.067-2.059 2.789-3.597 3.989l.328-2.735.008-.755c.362-.33.297-.329.517-.803-.5-.516-.805-.429-1.619-.591.819-.101 1.907-.314 2.458-.933-1.412-.721-6.632-.23-9.238-1.117l-.137-.354c2.933-2.181 12.406-.851 17.196-1.895-3.984-1.41-17.946-1.839-18.72-2.552l-.004-.678c.685-.796.344-.544 1.617-.813 1.451.017 4.753.568 5.795.131-.821-.726-1.223-.723-2.275-.9M273.707 155.559c1.106-.107 1.234-.308 2.087.144.232 1.071.259 1.883.259 2.978.001 6.464 1.331 13.053 3.205 19.24-4.119-1.263-7.417-.494-10.976-2.513-.787-.484-1.481-.795-1.945-1.568.55-.761 5.109.232 5.222-1.324.383-5.238-3.022-11.144-4.88-16.018 2.329-.283 4.698-.627 7.028-.939"/>
  <path fill="#530810" d="M181.358 161.324c1.217-1.249 2.397-1.532 4.035-1.965 1.461 1.296 2.088.775 3.284 1.489-1.138.181-2.616.463-3.733.572-3.437 1.283-4.731 3.887-6.233 7.163a89 89 0 0 0-4.172 11.189c-.701 2.275-1.657 6.149-2.685 8.09a1781 1781 0 0 0 16.083-7.842c2.471-1.217 6.974-3.573 9.387-4.444-.185.552-.322.829-.672 1.293l1.065.758c-6.307 3.604-19.82 9.307-26.848 13.056l-.679-.152-.322-.592c-.272-4.579 7.451-26.437 11.49-28.615"/>
  <path fill="#550912" d="M181.358 161.324c1.218-1.249 2.397-1.532 4.036-1.965 1.461 1.296 2.087.775 3.284 1.489-1.138.181-2.616.463-3.733.572-.466-.3-.949-.436-1.472-.621-.793.311-1.247.458-2.115.525"/>
  <path fill="#530810" d="M302.487 263.864c-.582.197-2.546.359-3.308.465-8.06.858-15.851-.764-23.526-4.009-9.525-4.027-20.954-12.28-26.513-21.31-.397-.645-.161-1.339.126-1.944 1.587.315 3.433 3.354 4.535 4.665a60.4 60.4 0 0 0 7.232 7.261c9.222 7.799 20.767 13.151 33.066 13.549 3.736.121 7.972-.805 11.762-1.126l.072.579c-.372.227-.444.374-.692.713-1.261.418-1.847.589-3.148.81.207.283.097.213.394.347M223.154 196.288c7.548 7.628 15.367 13.757 22.72 21.445 1.251 1.308 4.079 4.131 5.012 5.415l-.229-.119c-1.754-.924-1.705-1.738-3.23-2.258.631 1.944 5.823 5.484 5.733 7.249-.682-.285-4.834-4.975-5.719-5.93-6.7-7.234-13.679-13.519-21.379-19.642-1.406.082-2.91.051-4.326.047-.818.548-.683 2.894-1.468 4.116-1.486 2.317-3.622 4.648-5.413 6.739l-2.584-.045c3.084-3.548 5.793-6.692 7.746-10.986-1.171-.53-1.946-.95-3.061-1.596-.426-1.037-2.084-2.131-3.107-3.029l.149-.576.399-.196.683.95.222-.582c3.558 2.503 5.354 2.734 9.512 3.665l-3.153-3.419z"/>
  <path fill="#550912" d="M190.17 252.197c.53-2.004 3.323-7.607 4.292-9.757 5.812-12.901 8.39-18.514 17.81-29.135l2.583.045c-2.018 2.413-5.02 5.801-6.745 8.31l1.054 1.585c-1.017.155-1.168.168-1.953.821l-.674-.919c-3.799 6.132-7.035 13.99-10.198 20.53-1.211 2.505-3.471 8.216-4.978 10.254-.166-.496-.843-1.284-1.191-1.734"/>
  <path fill="#601624" d="M206.537 223.147c.482-1.094.363-.781 1.573-1.487l1.054 1.585c-1.017.155-1.168.168-1.953.821z"/>
  <path fill="#550912" d="M234.583 178.969c-.539-1.458-2.041-2.065-2.438-3.422l-.042.042c.661-.173.423-.14 1.198.222l.427-.337c8.984 6.84 12.943 4.597 21.396 9.653l2.352 1.125c5.496 2.797 16.963 7.688 20.14 12.575-6.03-2.368-15.394-7.953-21.011-11.247-1.375-.72-2.792-1.368-4.198-2.027-5.91-2.033-12.802-3.157-17.824-6.584"/>
  <path fill="#601624" d="m127.63 117.838.427.717c-.04 2.611-3.276 15.948-5.077 18.954-.542.905-4.547.713-5.903.715-.049-.087-.112-.169-.148-.262-.627-1.629 9.28-17.709 10.701-20.124"/>
  <path fill="#550912" d="M234.341 287.941a24 24 0 0 1-.33-1.075c-.574-2.077-.328-6.444 2.203-7.05l.325.615c1.522.779 1.966 1.181 3.286 2.301l1.235 5.12c-.693.481-.999.688-1.601 1.304l-.32-.723-.452-.17c-1.204 1.612-1.651 4.712-3.011 6.632l-.312.447c-2.646 2.575-1.063 2.908-2.401 4.544-1.095-.841-.125-1.781-1.713-2.301.673-1.024.662-1.362-.009-2.237 1.289-.386 2.704-1.178 2.394-2.647l-1.348-.349c2.084-1.271 1.859-2.091 2.054-4.411m1.043-.834c.438.766.222.663.873.891 1.405-1.407 1.218-5.359.209-7.092-1.877 2.324-1.737 3.353-1.082 6.201"/>
  <path fill="#550912" d="M234.341 287.941a24 24 0 0 1-.33-1.075c-.574-2.077-.328-6.444 2.203-7.05l.325.615-.073.475c-1.877 2.324-1.737 3.353-1.082 6.201z"/>
  <path fill="#380106" d="M124.565 291.481c.766-.492.905-.577 1.775-.83 2.892 3.326 9.594 2.368 13.696 4.152 3.936 1.711 6.073 4.216 9.42 6.68 3.404 2.506 6.852 3.468 10.83 4.439-.37.499-.858 1.2-1.274 1.63-4.054-1.029-7.598-2.241-11.047-4.694-2.94-2.091-5.497-4.942-8.997-6.102-4.472-1.483-11.506-1.171-14.403-5.275"/>
  <path fill="#550912" d="M96.952 238.107c-1.9 3.416-9.933 14.864-13.943 15.462l-.286-.358c.064-2.456 5.786-6.402 7.87-9.356 1.982-2.808 4.867-8.071 6.683-10.134 2.867 5.496 1.957 6.334 6.556 12.057-.497.423-.966.758-1.316 1.303-2.898-2.989-4.057-5.165-5.564-8.974M186.319 157.065c-2.823-.689-20.011-4.118-20.112-6.417 1.439-1.192 11.232-1.566 13.51-1.543 2.208.765 2.896.262 6.286 1.478-3.559.156-7.391.25-10.916.601l-.857.502.157.379 1.592.493c1.978.33 9.457 2.188 11.288 2.874-.291.45-.789 1.149-.948 1.633"/>
  <path fill="#601624" d="M179.717 149.105c4.208-.794 14.538-.822 19.396-1.2 4.535-.354 12.658-1.087 17.002-1.031l-.199.385c1.082.038 1.06-.155 1.676.469-.504.36-.372.129-.499.65-8.725 1.283-22.153 1.655-31.09 2.205-3.39-1.216-4.078-.713-6.286-1.478"/>
  <path fill="#530810" d="M78.022 259.94c1.183.873 1.23 1.111 2.61 1 1.748 2.489 3.124 2.861 6.089 3.489 2.945.625 8.064.26 9.933 2.988 1.474 2.151.675 6.583.986 9.286l-.05.294c-.363 2.28.438 2.339.215 4.03-1.34-1.28-.132-2.162-2.077-3.801-.242-1.248-.156-1.936-1.263-2.615l-.074-.275c.3-.259.806-.709.927-1.106 1.977-6.413-3.987-6.301-8.35-6.909-4.602-.642-7.389-1.903-8.946-6.381"/>
  <path fill="#601624" d="M187.267 155.432c5.676 1.537 11.659 3.161 17.378 4.49.022.816.074.926.41 1.674l-.094.344c-5.691-.962-10.537-1.559-16.283-1.092-1.197-.714-1.823-.193-3.284-1.489 1.898-.617 4.191-.673 6.207-.823-1.846-.672-3.381-1.016-5.283-1.471.16-.484.658-1.183.949-1.633M65.777 264.662l2.096-1.478c.056 2.509.53 3.579 2.517 5.339 4.719 4.181 8.48 5.588 11.171 11.839l-2.38-.039c-4.038-7.053-7.616-6.978-12.392-12.776-.402-.489-.84-2.201-1.012-2.885"/>
  <path fill="#550912" d="m256.23 283.33 1.337-.625c.408.236.52.26.821.631-.441 1.251-.985 2.941-1.819 3.932-4.775 5.674-12.399 9.36-17.11 1.888.602-.616.908-.823 1.601-1.304 1.164 2.551 1.571 2.646 4.076 3.834 5.697-1.518 8.753-2.57 11.094-8.356"/>
  <path fill="#530810" d="M147.263 145.156c4.395-1.353 12.524.91 19.057.202.234.486.571 1.251.865 1.676-7.723.719-16.098-1.514-22.124.727-.87.485-1.329.774-2.258.406l.036-.608c1.519-1.791 2.102-1.777 4.424-2.403"/>
  <path fill="#601624" d="m147.263 145.156.068.515c-1.433.559-1.611.774-2.27 2.09-.87.485-1.329.774-2.258.406l.036-.608c1.519-1.791 2.102-1.777 4.424-2.403"/>
  <path fill="#380106" d="M223.618 161.983c5.529-.757 3.418-3.277 10.085-1.92-.945.152-1.286.199-2.213.553l.07-.014c.151.8.114.549 1.001 1.194-1.455-.175-1.742-.461-2.855.073-.06 2.286 8.733 6.182 10.863 8.455l-.12.345c-5.723.02-9.427-5.693-14.027-7.508-.612-1.359-1.42-1.065-2.804-1.178M232.542 227.65c-2.753-1.222-18.646-7.741-19.557-10.036.096-.047.217-.115.326-.14 2.207-.514 16 6.412 18.822 7.955-.159 1.277-.102.926.409 2.221M159.027 281.527l1.956.268c-1.045.025-2.083-.058-2.991.424l-.131.484c.887.39 2.114-.07 3.188-.344-.241.506-.762.554-1.312.966l-1.365.042c-1.022 1.379 1.791 3.759 2.61 5.154l2.243 2.658c-.588.737-.9.946-1.625 1.502-1.276-.558-1.206-1.058-1.626-2.338l-.983-.37c-2.303.153-3.08 1.509-4.942 2.593l-.176-.345c1.212-3.165 3.45-2.07 4.371-3.52-.378-1.046-.91-1.514-1.661-2.33-1.841.6-4.455 2.189-5.27 2.366l-.349-.304c.398-1.943 3.405-1.875 5.011-3.239l.108-1.432c1.451-.758-.208-1.819 2.944-2.235"/>
  <path fill="#1e0206" d="m160.982 288.521 2.243 2.658c-.588.737-.9.946-1.625 1.502-1.276-.558-1.206-1.058-1.626-2.338.017-.289.027-.502.024-.794l-.005-.23zM212.881 161.887c1.903.289 3.384.561 5.32.547 1.368-.329 3.949-.408 5.417-.451 1.383.113 2.192-.181 2.803 1.178l-1.025.507c-.207.624-.22.591-.027 1.211-1.072.155-.853-.116-2.142-.659-.949-.557-3.424-.017-4.602.153-3.135.441-4.649.676-7.571 2.131-.33-.495-.611-1.098-.885-1.634.712-.448.887-.737 1.41-1.378.564-.583.831-.962 1.302-1.605"/>
  <path fill="#380106" d="M212.881 161.887c1.903.289 3.384.561 5.32.547-1.215.407-2.315.254-3.799.781l.993-.026-.133.483-.032.009-.532-.326-.256.232c.813.603 3.105.692 4.183.786-3.135.441-4.649.676-7.571 2.131-.33-.495-.611-1.098-.885-1.634.712-.448.887-.737 1.41-1.378.564-.583.831-.962 1.302-1.605"/>
  <path fill="#601624" d="M73.357 278.802c-3.136-2.619-15.777-6.709-10.195-12.917 2.094.225.008 3.462 2.19 5.47 3.438 3.166 5.81 2.532 9.446 6.198-.69.452-.969.572-1.441 1.249"/>
  <path fill="#550912" d="M173.922 244.483c5.247 6.031 8.869 6.327 15.433 9.415-.627.558-.732.613-1.143 1.327-1.85-.658-8.421-4.203-9.869-3.709-.49-.043-.927-.212-1.396-.361-.144-1.851-3.059-4.217-4.493-5.593.342-.198 1.113-.813 1.468-1.079"/>
  <path fill="#380106" d="M88.19 291.493c5.858 5.257 7.495 4.67 14.308 6.884-1.275.328-1.546.226-2.024 1.646-4.887-.764-10.834-3.78-14.077-7.606.927-.249 1.104-.27 1.792-.924"/>
  <path fill="#550912" d="M44.683 75.086c2.896-.423 18.31-1.173 19.923.677-1.263 1.8-10.726.727-13.211.702-1.139-.02-5.893-.784-6.712-1.38"/>
  <path fill="#1e0206" d="M163.599 306.203c3.44-.088 6.202-.291 9.501-1.358.94-.303 2.685-.965 3.419-.475.024 2.223-5.979 3.148-7.836 3.433-3.887.381-5.792.272-9.671-.251.416-.43.904-1.131 1.274-1.63z"/>
  <path fill="#601624" d="m160.286 305.922 3.313.281c2.514.756 3.329-1.137 5.084 1.6-3.887.381-5.792.272-9.671-.251.416-.43.904-1.131 1.274-1.63M223.227 164.22c1.289.543 1.07.814 2.141.659-.365-.355 8.559 10.915 8.36 10.595l-.427.337c-.775-.362-.538-.395-1.199-.222l.043-.042c.397 1.357 1.899 1.964 2.438 3.422-3.518-2.26-10.068-10.723-11.356-14.749"/>
  <path fill="#530810" d="M315.286 82.263c4.057-.272 12.194 7.6 11.605 11.23-.381.117-.762.122-1.161.152-1.635-2.185-3.31-4.31-5.26-6.228-1.813-1.786-3.618-3.11-5.184-5.154"/>
  <path fill="#380106" d="M138.408 291.707c2.056-1.208 1.024.211 2.451-.631 3.975 2.373 9.017 6.147 12.971 8.827-.826-.205-1.333-.339-2.197-.426-.527.699-.389.367-.459 1.308-4.385-2.732-8.118-6.2-12.766-9.078"/>
  <path fill="#0b0001" d="m173.141 140.199-.328 2.735c.198.756.48 1.113.02 1.811-1.032 1.565-3.919 2.203-5.648 2.289-.294-.425-.631-1.19-.865-1.676.888-.173 1.77-.389 2.65-.596.91-.282 2.106-.498 2.486-1.407-.851-.379-1.81.032-2.788.283-.745-.035-1.718-.151-2.479-.221-.986-.184-2.069-.241-2.681-.994l.25-.409c1.596-.472 3.474-.338 5.161-.318 1.872-.279 2.615-.535 4.222-1.497"/>
  <path fill="#1e0206" d="M166.189 143.417c-.986-.184-2.069-.241-2.681-.994l.25-.409c1.596-.472 3.474-.338 5.161-.318l-.245.505c-1.429.016-1.513-.239-2.346.49z"/>
  <path fill="#380106" d="M216.956 200.723c-3.802-1.844-9.831-10.526-9.078-14.613l.382-.236c1.265.603 2.355 3.055 2.926 4.344 1.204 2.716 2.387 4.668 4.116 7.072l-.222.582-.683-.95-.399.196-.149.576c1.023.898 2.681 1.992 3.107 3.029"/>
  <path fill="#601624" d="M227.41 292.489c2.003-2.142 4.634-2.817 7.355-3.64-1.545 1.481-5.427 2.781-5.907 4.275l.545.285c1.076-.297 1.856-.633 2.883-1.057l1.349.349c-4.709 2.718-7.75 1.226-12.79 2.832l-.457-.962c-1.859.197-1.682 1.5-3.451 1.754 1.965-3.462 6.956-3.763 10.473-3.836M86.95 296.009c4.347 3.794 9.614 5.186 15.263 5.986-1.902.159-2.373.079-3.892 1.25-5.043-.795-9.724-3.011-13.218-6.773.684-.375 1.091-.294 1.847-.463"/>
  <path fill="#530810" d="M254.677 305.873c3.861.974 7.857 1.709 11.759.378l1.105-.487c.667.959.614 1.11 1.89 1.543-3.502 1.285-6.475 2.014-10.241 1.445-2.248-.42-3.993-.729-6.265-.946.878-.626 1.124-1.062 1.752-1.933"/>
  <path fill="#550912" d="M267.541 305.764c.667.959.614 1.11 1.89 1.543-3.502 1.285-6.475 2.014-10.241 1.445l.033-.493c1.415.155 4.306.049 5.686-.314.985-.26 1.062-.82 1.527-1.694z"/>
  <path fill="#601624" d="M164.562 292.257c4.143 2.801 12.803 4.607 10.66 10.193-.23-.802-.393-1.354-.521-2.195l-.025-.171c-.408-.064-.403-.093-.792.026-1.828-1.92-6.22-3.185-9.133-5.322z"/>
  <path fill="#380106" d="M129.508 287.007c3.674.492 8.218 2.061 11.35 4.069-1.427.842-.395-.577-2.451.631-3.941-1.766-7.126-1.663-10.671-3.17.006-.938-.123-.632.362-1.336z"/>
  <path fill="#601624" d="M97.64 276.703c.803 3.897 1.542 6.22 3.952 9.515l-1.527.796c-.564-.481-1.488-1.797-1.973-2.444-1.545.734-3.695 2.432-4.914 2.326.787-1.814 2.85-2.494 4.57-2.932-.859-2.001-2.047-4.596-2.02-6.738 1.945 1.639.738 2.521 2.078 3.801.222-1.691-.58-1.75-.215-4.03z"/>
  <path fill="#550912" d="m165.897 236.712 1.279-1.555c1.024 1.874 5.258 7.522 6.746 9.327-.355.265-1.126.88-1.468 1.078a255 255 0 0 1-4.854-6.372l-.818.692c-.409-.511-.745-1.073-1.096-1.625l.644-.662z"/>
  <path fill="#601624" d="M166.33 237.595c1.115.792.876.392 1.27 1.595l-.818.692c-.409-.511-.745-1.073-1.096-1.625z"/>
  <path fill="#380106" d="M81.562 280.362c1.418 2.674 2.985 6.143 4.621 8.529-.245.62-.592 1.591-.908 2.142-2.082-2.647-4.484-7.603-6.094-10.71z"/>
  <path fill="#601624" d="M103.199 287.778c2.308 1.884 7.385 4.93 8.533 6.932l-2.168.175c-.613-.224-6.892-4.823-7.894-5.52.581-.444 1.044-1.033 1.529-1.587"/>
  <path fill="#380106" d="m215.877 187.694 6.052 7.208-1.724 1.147c-1.811-1.806-4.419-5.236-5.923-7.315z"/>
  <path fill="#550912" d="m216.114 146.874.449-.531c-.24-1.932-.614-4.589.325-6.374.718-.568.363-.458 1.347-.362 1.098 1.223-.166 2.241.015 3.839.151 1.341 1.235 3.041.861 4.242-.631.531-1.184.649-2.018.69.127-.521-.005-.29.498-.65-.615-.624-.593-.431-1.675-.469z"/>
  <path fill="#290003" d="M151.174 300.785c.07-.941-.068-.609.459-1.308.864.087 1.371.221 2.197.426 2.059 1.032 3.358 1.732 5.561 2.386.366 1.455.103 1.252 1.032 2.22-3.383-.466-6.391-1.96-9.249-3.724"/>
  <path fill="#550912" d="M267.541 305.764c2.201-.937 4.213-2.861 5.349-4.967.776.205 1.155.339 1.972.359-1.184 2.93-2.787 4.49-5.431 6.151-1.276-.433-1.223-.584-1.89-1.543"/>
  <path fill="#1e0206" d="M173.884 300.11c.389-.119.384-.09.792-.026l.025.171c.128.841.292 1.392.522 2.195-2.27 1.512-5.428 2.216-8.133 2.395.626-.69.959-1.612 1.335-2.472q.3-.038.599-.086c2.056-.333 3.637-.473 4.86-2.177"/>
  <path fill="#601624" d="M159.391 302.289c3.646.433 5.422.738 9.034.084-.376.86-.709 1.782-1.335 2.472-2.384-.03-4.306-.03-6.667-.336-.93-.968-.666-.765-1.032-2.22"/>
  <path fill="#380106" d="M73.357 278.802c.473-.677.752-.797 1.441-1.249 2.174 2.384 4.191 4.985 5.456 7.988l-.637.347q-.738-.32-1.474-.648c-1.58-2.726-2.672-4.153-4.786-6.438M67.587 258.497c1.587-2.3 3.555-3.672 6.138-4.644 1.268.585 1.96.383 3.164.675-2.614 1.134-5.398 2.192-7.21 4.522-.651-.131-1.439-.373-2.092-.553M211.336 154.944c2.737-.413 11.564 2.414 13.055 4.811-.074-.003-.516-.027-.601-.054-3.956-1.234-7.874-2.705-11.846-3.963zM102.214 301.995c2.026.132 3.859.135 5.761.857l.352.405c-1.771 1.582-7.759.517-10.006-.012 1.519-1.171 1.99-1.092 3.893-1.25M245.406 307.071c3.48-2.166 5.418-1.757 9.272-1.198-.629.871-.875 1.307-1.753 1.933-1.866-.2-2.636-.318-4.542-.028-1.466-.051-1.65-.084-2.977-.707M231.25 297.585c-.365.525-.503.836-.649 1.459-.907.36-5.261-1.122-6.16-1.735l.061-.323c2.066-.991 4.003-.298 6.479-1.509l.26-.129c.671.875.682 1.213.009 2.237"/>
  <path fill="#0b0001" d="M172.047 138.05c.814.162 1.12.075 1.62.591-.221.474-.156.473-.518.803-1.919.481-7.8 1.698-8.645-.46.887-.957 5.508-.711 7.543-.934"/>
  <path fill="#380106" d="M204.645 159.922c1.966.466 5.024 1.091 6.873 1.671l1.363.294c-.471.643-.738 1.022-1.303 1.605l-1.553-.509c-2.046-.46-2.701-.205-5.065-1.043l.095-.344c-.336-.748-.389-.857-.41-1.674"/>
  <path fill="#1e0206" d="m211.518 161.593 1.363.294c-.471.643-.738 1.022-1.302 1.605l-1.554-.509c.548-.824.622-.934 1.493-1.39"/>
  <path fill="#380106" d="M111.732 294.71c.805 2.176.419 5.355-1.88 6.354l-.923.02-.309-.396c.523-3.296 2.472-3.061.944-5.803zM195.646 153.692c.246-.016 1.427-.1 1.552.038 2.039 2.26 8.669 2.584 9.998 4.895-2.543-.262-10.833-2.208-11.55-4.933"/>
  <path fill="#550912" d="m17.225 168.557.122.09c2.408 1.751 6.28 2.302 7 3.889l-.42.384c-2.886-.4-4.089-.756-6.695-1.862-.492-1.63-.535-1.02-.007-2.501"/>
  <path fill="#601624" d="m125.766 281.44.74-.148 1.241.832.111.3c-.717 2.299-.405 3.335 1.651 4.583l-1.411.194c-.484.704-.355.398-.361 1.336-2.631-2.573-2.125-3.687-1.971-7.097M80.254 285.541l2.662 4.488c-.794.817-.592 1.517-.891 2.501-1.414-2.463-2.603-4.765-3.882-7.29q.735.328 1.474.648zM236.511 309.889c-3.63.285-7.034.409-10.328-1.321l-.056-.306c2.164.327 5.247.415 7.499.542 1.526.278 2.068.081 2.885 1.085"/>
  <path fill="#1e0206" d="M218.203 226.806c-2.072-.968-3.882-1.766-5.239-3.714l.177-.296c1.91-.03 4.657 1.909 6.877 2.827-.682.835-.774.932-1.815 1.183"/>
  <path fill="#530810" d="M67.587 258.497c.653.18 1.44.422 2.091.553-1.046 1.622-1.238 2.345-1.805 4.134l-2.096 1.478c.192-2.6.481-3.9 1.81-6.165"/>
  <path fill="#380106" d="M82.024 292.53c.3-.984.098-1.684.892-2.501.557.986 1.091 1.968 1.72 2.911.767 1.019 1.534 2.062 2.314 3.069-.755.169-1.162.088-1.847.463l-1.85-2.221zM101.592 286.218l1.607 1.56c-.484.554-.948 1.143-1.529 1.587-1.438-.93-3.022 1.776-4.63 1.547 1.53-2.462 2.697-2.041 3.026-3.898z"/>
  <path fill="#601624" d="M78.022 259.94c-.04-1.513-.006-3.097.846-4.426l.633-.211c1.475 1.111.139 3.276 1.131 5.637-1.38.11-1.426-.128-2.61-1"/>
  <path fill="#380106" d="M73.726 253.853c1.45-.815 4.883-2.55 6.504-1.694-.254 1.32-2.162 1.864-3.34 2.369-1.204-.292-1.897-.09-3.164-.675M220.019 225.623c2.003.845 3.401 1.217 5.499 1.793-2.219 1.832-1.578.262-3.731.809-1.18-.19-2.479-.893-3.584-1.419 1.042-.251 1.134-.348 1.816-1.183"/>
  <path fill="#0b0001" d="M223.995 154.89c1.459-.239 3.861.549 4.23 2.147-.952.656-1.502.499-2.738.27a65 65 0 0 1-1.306-.256c-.229-.404-.542-1.096-.887-1.306zM210.717 158.573c2.04-.3 5.041.525 6.868 1.521.332.181.229.677.238 1.04-1.47-.356-6.282-1.349-7.217-1.957zM102.497 298.377c1.042.242 2.02.336 2.725 1.11l.011.53c-1.444 1.033-3.206.625-4.759.006.478-1.42.749-1.318 2.023-1.646"/>
  <path fill="#550912" d="M263.262 235.76c.881.849 1.986 1.726 2.312 2.872l-.25.46c-1.255.034-2.52-1.196-3.476-1.991z"/>
  <path fill="#380106" d="M256.23 283.33c1.211-2.214 1.551-3.307 4.283-2.621l-.44 1.704-.879-.279c-.707.444-.476.238-.806 1.202-.301-.371-.412-.395-.821-.631zM214.282 188.734a34 34 0 0 1-.807-1.183c-.604-.945-.665-1.3-.443-2.27l.603-.145c1.044.44 1.61 1.577 2.242 2.558z"/>
  <path fill="#601624" d="m299.052 171.693.715 1.392.478.073 1.126-1.058c.03.496.068 1.71.174 2.128-2.139 1.881-1.776-.3-2.009 2.725-.292-1.174-.397-3.944-.484-5.26"/>
  <path fill="#380106" d="M124.566 291.482c-.454-1.333-1.013-2.381.05-3.493l.612.102c.805.574.889 1.575 1.113 2.56-.87.253-1.01.338-1.775.831"/>
  <path fill="#1e0206" d="M204.024 152.502c1.613-.194 4.33.564 4.352 2.507-1.486-.188-3.167-1.11-4.376-1.977z"/>
  <path fill="#380106" d="m189.355 253.898.815-1.701c.347.45 1.025 1.238 1.191 1.734-.359.823-.475 1.373-1.234 1.802-.89.082-1.13-.102-1.915-.508.411-.714.516-.769 1.143-1.327M163.225 291.179c.188.148 1.246.968 1.338 1.078l.189 2.531-3.152-2.107c.725-.556 1.037-.765 1.625-1.502M94.39 274.336l.075.275c-.837.995-2.959 2.596-4.28 2.018l.062-.568c1.302-1.366 2.302-1.433 4.144-1.725"/>
  <path fill="#601624" d="M298.442 165.059c-.686-1.07-.38-2.245.371-3.178l.604-.046c.769 1.034.555 1.293.718 2.78l-1.174-.231c-.259.293-.342.34-.519.675"/>
  <path fill="#550912" d="M257.216 274.331c.602 1.099 1.294 2.088 1.188 3.325l-.326.342c-.957-.275-1.396-1.029-2.058-1.836.595-.675.91-.953 1.196-1.831"/>
  <path fill="#601624" d="M86.184 288.891c.652.886 1.282 1.773 2.005 2.602-.688.654-.865.675-1.792.924l-1.122-1.384c.316-.551.664-1.522.908-2.142"/>
  <path fill="#380106" d="m94.68 279.14.5.324-.068.507c-1.066.826-1.875 1.3-3.041 1.989-.584-.145-.318-.005-.758-.53.434-1.257 2.226-1.814 3.367-2.29M151.816 282.647l.261.14c-.466 1.321-2.116 2.205-3.476 1.918l-.102-.438c1.048-1.149 1.781-1.218 3.317-1.62"/>
  <path fill="#601624" d="m221.93 194.902 1.225 1.386-1.493 1.248c-.127-.09-1.267-1.292-1.457-1.487z"/>
  <path fill="#380106" d="M168.739 128.939c1.053.177 1.454.174 2.276.9-1.042.437-4.344-.114-5.795-.131.933-.505 2.427-.618 3.519-.769"/>
  <path fill="#601624" d="m235.364 295.342.312-.447c.733.527 1.037.664 1.299 1.554l-.109.908-.466.248c-.76-.608-.798-1.2-1.036-2.263"/>
  <path fill="#380106" d="M168.668 143.638c.978-.251 1.937-.662 2.788-.283-.38.909-1.576 1.125-2.486 1.407zM128.237 155.845c.782-.152 1.163-.162 1.962-.184l-.415.621c-.514.22-.884.329-1.325.663l.2-.641z"/>
  <path fill="#601624" d="m175.979 152.558-1.592-.493-.158-.379.857-.502z"/>
</svg>